# xmcd
#
# Track frame offsets:
#	150
#	15235
#	33532
#
# Disc length: 708 seconds
#
# Revision: 2
# Processed by: cddbd v1.5.2PL0 Copyright (c) Steve Scherf et al.
# Submitted via: EZCDAudioConverter 2.2.2.1
#
DISCID=1602c203
DTITLE=Little Rock Country Band - promotion
DYEAR=2001
DGENRE=country
TTITLE0=Show me
TTITLE1=Tougher than the rest
TTITLE2=Tell me why
EXTD=
EXTT0=
EXTT1=
EXTT2=
PLAYORDER=
